<svg xmlns="http://www.w3.org/2000/svg" width="240" height="240" viewBox="0 0 240 240">
  <rect width="240" height="240" fill="none"/>
  <g stroke="#ffffff" stroke-opacity="0.07" stroke-width="1" fill="none">
    <path d="M12 24l28-10M142 14l20 42M34 122l46-12M124 186l38-30M170 94l42 18M14 194l20-6M184 40l26 8M82 156l20 46"/>
    <path d="M28 70l18 4M92 38l26 10M148 146l22-6M204 168l20 16"/>
  </g>
  <g fill="#ffffff" fill-opacity="0.05">
    <circle cx="30" cy="42" r="1.4"/>
    <circle cx="144" cy="66" r="1.2"/>
    <circle cx="198" cy="156" r="1.4"/>
    <circle cx="62" cy="178" r="1.1"/>
    <circle cx="102" cy="106" r="1.1"/>
    <circle cx="212" cy="36" r="1.1"/>
  </g>
</svg>
